<svg width="16" height="16" viewBox="0 0 16 16" xmlns="http://www.w3.org/2000/svg">
<g id="tintin">
	<g>
		<path d="M321.1,276.2c-12.4-6.8-25-9.3-38-9.4c-1.9,0-3.9,0.1-5.9,0.2c-2.4,0.1-4.1,1.5-3.9,4c0.1,2.5,1.8,3.7,4.3,3.6
			c6.1-0.2,12.3-0.1,18.4,0.9c8.1,1.4,15.7,3.9,22.6,8.3c1.9,1.2,2.9,2.6,3.1,5c0.8,10,2.3,20,5.7,29.5c1.1,3-0.9,4.1-2.5,5.5
			c-33.3,29.2-71.4,48.7-114.8,58c-16.6,3.6-33.4,6.1-50.4,2.9c-24.9-4.7-38.8-20.3-40.8-45.6c-1.5-18.8,1.2-37.1,5.4-55.2
			c4.9-21.3,3-42.6-0.3-63.9c-1.7-11-2.8-22.1-0.7-33.1c3.1-16.6,14.2-26.6,31-28.3c14.9-1.5,29.2,1.9,43.6,4.9
			c30.6,6.2,57.5,20.4,83.1,37.5c14.2,9.5,27.8,19.9,40.4,31.5c2.1,1.9,2.8,3.7,2.3,6.6C321.7,251,321.1,263.1,321.1,276.2z"/>
		<path d="M394.6,274.7c-0.4-13.3-1.8-25.8-4.1-38.2c-0.3-1.9,0.2-3.1,1.5-4.3c42.8-37.9,90.1-66.7,148.3-73.4
			c5.7-0.7,11.4-0.9,17.1-0.4c19.7,1.6,31.8,13.8,33.3,33.5c0.9,12.2-0.6,24.3-2.7,36.2c-4,23.7-1.7,46.9,3.7,70
			c3.2,13.6,3.6,27.6,2.4,41.6c-2.3,26.3-18.5,42.5-45,45.6c-19.6,2.3-38.5-1.5-57.3-6.3c-38.2-9.8-71.8-28.1-101.7-53.6
			c-1.7-1.5-2.8-2.7-1.7-5.2c4.2-10.4,5.8-21.4,6-32.6c0-3,1.1-4.6,3.7-5.9c8.4-4.4,17.4-6.5,26.8-7.1c3.6-0.2,7.2-0.1,10.8,0
			c2.5,0,4.2-1.2,4.3-3.6c0.1-2.5-1.5-3.7-4-4c-6.5-0.6-12.9-0.1-19.3,0.8C409.1,268.9,402,271.3,394.6,274.7z"/>
		<path d="M353.3,335c-5.6,90-54.2,184.6-113.5,244.5c-1-5.3-2-10.2-2.9-15c-2.9-14.6-6.2-29-10.2-43.3c-1.7-6.2-2.7-6.7-9.3-5.8
			c-18.5,2.6-37,3.3-55.6,1.2c-1.8-0.2-3.5-0.5-5.2-0.8c-0.4-1.4,0.6-1.7,1.2-2.3c47.2-39.9,84.4-87.9,115.7-140.8
			c1.7-3,3.9-5,7-6.6c17.9-9.5,34.5-21,49.8-34.5c2.6-2.2,4.5-2.6,7.4-1C342.4,333.3,347.8,334.1,353.3,335z"/>
		<path d="M560.8,512.9c-22.4,1.5-43.6,1.7-64.8-0.3c-6-0.6-7.1,0-8.3,6c-3.7,18-6.9,36.2-9.8,54.4c-0.2,1.5-0.6,3-1.1,5.8
			c-64-69.9-104.3-149.4-113.6-243.8c5.9-1.3,11.2-2.2,16.2-4.4c1.5-0.7,2.5,0.3,3.6,1.2c18.1,15.6,37.8,28.9,59.5,39.3
			c2.3,1.1,3.2,3,4.4,4.9c23.9,39.2,51.1,75.8,83.5,108.4c8.7,8.8,17.7,17.1,27,25.1C558.1,510.4,559.1,511.4,560.8,512.9z"/>
		<path d="M330.3,271.1c-0.1-9.4,1-19.7,2.1-30c0.3-2.5,1.2-4,3.6-5c13.3-5.5,26.7-6.3,40.3-1.3c3.5,1.3,5.2,3,5.8,6.9
			c3.2,21.7,5.6,43.5,0.5,65.2c-3.8,16.2-2.6,15.4-20.5,18.6c-2.5,0.4-5.1,0.4-7.6,0.2c-14.2-1-17.4-3.8-20.7-17.6
			C331,296.3,330.1,284.2,330.3,271.1z"/>
	</g>
</g>
</svg>